<svg width="21" height="21" viewBox="0 0 21 21" fill="none" xmlns="http://www.w3.org/2000/svg">
<path d="M19.6 16.75V10.1301C19.6 8.98143 19.6 8.40707 19.4519 7.87813C19.3208 7.4096 19.1052 6.96892 18.8159 6.57774C18.4893 6.13614 18.0359 5.78352 17.1292 5.07828L14.5292 3.05606L14.5292 3.05605C13.1239 1.96305 12.4212 1.41654 11.6454 1.20647C10.9608 1.02111 10.2392 1.02111 9.55459 1.20647C8.77871 1.41654 8.07606 1.96305 6.67076 3.05606L4.07076 5.07828C3.16402 5.78352 2.71065 6.13614 2.38403 6.57774C2.09471 6.96892 1.87918 7.4096 1.74803 7.87813C1.59998 8.40707 1.59998 8.98143 1.59998 10.1301V16.75C1.59998 17.4478 1.59998 17.7967 1.68609 18.0806C1.87999 18.7198 2.3802 19.22 3.01941 19.4139C3.3033 19.5 3.65219 19.5 4.34998 19.5H4.97498C5.09104 19.5 5.14907 19.5 5.19811 19.4976C6.22552 19.4471 7.04709 18.6255 7.09757 17.5981C7.09998 17.5491 7.09998 17.4911 7.09998 17.375V14.5C7.09998 12.567 8.66698 11 10.6 11C12.533 11 14.1 12.567 14.1 14.5V17.375C14.1 17.4911 14.1 17.5491 14.1024 17.5981C14.1529 18.6255 14.9744 19.4471 16.0018 19.4976C16.0509 19.5 16.1089 19.5 16.225 19.5H16.85C17.5478 19.5 17.8966 19.5 18.1805 19.4139C18.8197 19.22 19.32 18.7198 19.5139 18.0806C19.6 17.7967 19.6 17.4478 19.6 16.75Z" stroke="#444C5C" stroke-width="1.8"/>
</svg>
